<svg width="57" height="42" viewBox="0 0 57 42" fill="none" xmlns="http://www.w3.org/2000/svg">
<g clip-path="url(#clip0_5_2)">
<path d="M29.7314 22.8407C28.3472 35.064 25.4653 37.3841 13.4002 35.9822C1.33618 34.5797 -0.952606 31.6593 0.429982 19.436C1.81425 7.21271 4.69671 4.89381 16.7613 6.29629C28.8258 7.69767 31.1157 10.6175 29.7314 22.8407Z" fill="url(#paint0_linear_5_2)"/>
<path d="M53.5296 13.7609C52.3254 13.7609 51.3238 14.2486 50.3733 15.7131L46.5835 21.505L46.9258 16.9848C47.0526 15.2896 46.0005 13.7615 44.1247 13.7615C42.3757 13.7615 41.2984 14.9559 41.1968 16.4584L40.6009 24.7159C40.4617 26.796 41.5132 27.9517 43.2376 27.9517C44.9619 27.9517 45.95 26.7573 46.7103 25.6016L50.3733 19.9899L50.0439 24.7159C49.9047 26.655 50.9058 27.9517 52.7816 27.9517C54.5183 27.9517 55.6338 26.9114 55.7477 25.3446L56.3559 16.9842C56.4698 15.3663 55.6843 13.7609 53.5296 13.7609ZM39.1055 23.97C39.1055 22.082 37.6859 20.862 35.8101 20.6181C37.5591 20.2457 39.0932 19.0769 39.0932 17.1764C39.0932 15.0702 37.4833 13.8763 34.5302 13.8888H28.5476C25.7847 13.8888 24.7578 15.019 24.5423 18.1008L24.1871 23.2634C23.9464 26.7306 24.9222 27.8221 28.294 27.8221H34.0229C37.3184 27.8221 39.1055 26.4487 39.1055 23.97ZM33.4523 23.5976C33.4523 24.792 32.5399 25.3571 31.0187 25.3571L29.4061 25.344C29.4061 25.344 29.6591 23.6624 29.8218 21.9797H31.2976C32.5651 21.9797 33.4523 22.5061 33.4523 23.5976ZM33.5157 17.9473C33.5157 18.9746 32.692 19.5908 31.2342 19.5908H30.021C30.021 19.5908 30.1423 17.7177 30.0631 16.3674H31.3986C32.7295 16.3674 33.5151 16.9456 33.5151 17.9467L33.5157 17.9473Z" fill="white"/>
<path d="M20.0346 13.7831C18.8181 13.7831 17.8446 14.2761 16.8716 15.728L13.0869 21.5073L13.4381 17.0151C13.5465 15.3169 12.4921 13.7831 10.6264 13.7831C8.89595 13.7831 7.81466 14.961 7.70638 16.4676L7.11158 24.7398C6.97635 26.7944 8.0307 27.9717 9.70674 27.9717C11.3828 27.9717 12.4371 26.7392 13.2216 25.6159L16.871 20.0008L16.5467 24.7392C16.3846 26.6568 17.412 27.9711 19.2771 27.9711C21.0076 27.9711 22.1427 26.9303 22.251 25.3692L22.8458 17.0151C22.9811 15.3715 22.1977 13.7831 20.0346 13.7831Z" fill="url(#paint1_linear_5_2)"/>
<path d="M13.4324 17.019L13.0811 21.5113L13.2159 25.6199C12.4314 26.7432 11.3771 27.9757 9.70102 27.9757C8.02497 27.9757 6.97062 26.7983 7.10584 24.7438L7.70066 16.4715C7.80893 14.965 8.89023 13.7871 10.6207 13.7871C12.4864 13.7871 13.5408 15.3209 13.4324 17.019Z" fill="url(#paint2_linear_5_2)"/>
<path d="M13.4439 16.7809C13.4439 15.2141 12.444 13.7821 10.6052 13.7821C8.76642 13.7821 7.69977 15.1789 7.69977 16.6854C7.69977 18.3016 8.89659 19.5614 10.5726 19.5614C12.2487 19.5614 13.4439 18.3965 13.4439 16.7809Z" fill="white"/>
</g>
<defs>
<linearGradient id="paint0_linear_5_2" x1="32.9913" y1="54.6204" x2="-0.509212" y2="5.1606" gradientUnits="userSpaceOnUse">
<stop offset="0.798" stop-color="#F30745"/>
<stop offset="0.977" stop-color="#FFBCCE"/>
</linearGradient>
<linearGradient id="paint1_linear_5_2" x1="14.3581" y1="20.8075" x2="8.50782" y2="20.0745" gradientUnits="userSpaceOnUse">
<stop offset="0.15" stop-color="white"/>
<stop offset="0.62" stop-color="white" stop-opacity="0.6"/>
<stop offset="1" stop-color="white" stop-opacity="0"/>
</linearGradient>
<linearGradient id="paint2_linear_5_2" x1="8.96483" y1="27.868" x2="10.5919" y2="19.1091" gradientUnits="userSpaceOnUse">
<stop offset="0.15" stop-color="white"/>
<stop offset="0.62" stop-color="white" stop-opacity="0.6"/>
<stop offset="1" stop-color="white" stop-opacity="0"/>
</linearGradient>
<clipPath id="clip0_5_2">
<rect width="56.3709" height="41.5364" fill="white" transform="translate(0.072876)"/>
</clipPath>
</defs>
</svg>
