<svg width="136" height="18" viewBox="0 0 136 18" fill="none" xmlns="http://www.w3.org/2000/svg">
<path fill-rule="evenodd" clip-rule="evenodd" d="M48.8099 8.99999C48.8099 4.09249 51.2596 0.166656 55.6771 0.166656C60.0954 0.166656 62.5442 4.09249 62.5442 8.99999C62.5442 13.9083 60.0946 17.8333 55.6779 17.8333C51.2596 17.8333 48.8099 13.9083 48.8099 8.99999ZM55.6771 15.3833C57.3953 15.3833 58.1267 12.4383 58.1267 9.00666C58.1267 5.57332 57.3895 2.62999 55.6771 2.62999C53.9646 2.62999 53.2274 5.57416 53.2274 9.00666C53.2216 12.4383 53.9588 15.3833 55.6771 15.3833ZM3.18688 0.416656V5.07999H3.43068L6.61756 0.416656H11.0293L5.14312 5.81166L5.38693 6.05582L16.179 0.410823V4.33666L6.61176 7.76916V8.01249L16.179 7.15582V10.8383L6.61176 9.98166V10.2258L16.179 13.6575V17.5842L5.38693 11.9383L5.14312 12.1825L11.0293 17.5775H6.61756L3.43068 12.9142H3.18688V17.5775H0V0.40499H3.18688V0.416656ZM19.1337 0.416656H23.3024L23.0586 10.7192H23.3024L28.2076 0.416656H31.8879V17.59H27.7199L27.9638 7.28666H27.7199L22.8132 17.5908H19.1329L19.1337 0.416656ZM38.9988 0.416656H34.8309V17.59H38.9988V9.98166H42.4295V17.59H46.5974V0.416656H42.4295V7.04332H38.9988V0.416656ZM76.5232 0.416656H64.7559V17.59H68.9246V3.36082H72.3553V17.59H76.5232V0.416656ZM78.7291 8.99999C78.7291 4.09249 81.1787 0.166656 85.5971 0.166656C90.0088 0.166656 92.4642 4.09249 92.4642 8.99999C92.4642 13.9083 90.0146 17.8333 85.5971 17.8333C81.1854 17.8333 78.7291 13.9083 78.7291 8.99999ZM85.5971 15.3833C87.3153 15.3833 88.0467 12.4383 88.0467 9.00666C88.0467 5.57332 87.3095 2.62999 85.5971 2.62999C83.8788 2.62999 83.1474 5.57416 83.1474 9.00666C83.1474 12.4383 83.8788 15.3833 85.5971 15.3833ZM98.838 0.416656H94.6701V17.59H98.3504L103.256 7.28666H103.5L103.256 17.59H107.424V0.416656H103.744L98.838 10.7192H98.5942L98.838 0.416656ZM118.466 11.7008L122.39 12.1883C121.653 15.6217 119.94 17.8333 116.283 17.8333C111.872 17.8333 109.636 13.9083 109.636 8.99999C109.636 4.09249 111.866 0.166656 116.283 0.166656C119.863 0.166656 121.653 2.37416 122.39 5.56249L118.466 6.54332C118.222 4.82416 117.508 2.61832 116.283 2.61832C114.815 2.61832 114.053 5.56249 114.053 8.99416C114.053 12.4025 114.815 15.3708 116.283 15.3708C117.485 15.3833 118.216 13.42 118.466 11.7008ZM128.276 0.41749H124.352V17.59H128.276V9.98166H128.52L131.463 17.59H136L131.707 8.75666L135.875 0.416656H131.707L128.52 8.02499H128.276V0.416656V0.41749Z" fill="white"/>
</svg>
