<svg width="95" height="34" viewBox="0 0 95 34" fill="none" xmlns="http://www.w3.org/2000/svg">
<path d="M13.0373 7.77798C5.85216 7.77798 0 13.6197 0 20.9054C0 28.1583 5.85216 34 13.0373 34C20.255 34 26.1071 28.1583 26.1071 20.9054C26.1071 13.6197 20.255 7.77798 13.0373 7.77798ZM13.0373 28.5193C9.03833 28.5193 5.75462 24.9421 5.75462 20.9054C5.75462 16.8359 9.03833 13.2587 13.0373 13.2587C17.0688 13.2587 20.3525 16.8359 20.3525 20.9054C20.3525 24.9421 17.0688 28.5193 13.0373 28.5193Z" fill="white"/>
<path d="M5.55955 5.80888C7.12013 5.80888 8.4206 4.49614 8.4206 2.88803C8.4206 1.31274 7.12013 0 5.55955 0C3.96646 0 2.66599 1.31274 2.66599 2.88803C2.66599 4.49614 3.96646 5.80888 5.55955 5.80888Z" fill="white"/>
<path d="M20.5151 5.80888C22.0756 5.80888 23.3761 4.49614 23.3761 2.88803C23.3761 1.31274 22.0756 0 20.5151 0C18.922 0 17.6215 1.31274 17.6215 2.88803C17.6215 4.49614 18.922 5.80888 20.5151 5.80888Z" fill="white"/>
<path d="M13.0373 5.80888C14.5979 5.80888 15.8984 4.49614 15.8984 2.88803C15.8984 1.31274 14.5979 0 13.0373 0C11.4442 0 10.1437 1.31274 10.1437 2.88803C10.1437 4.49614 11.4442 5.80888 13.0373 5.80888Z" fill="white"/>
<path d="M70.6485 8.23745H64.3087L56.7984 18.7722V0.426636H51.0438V33.5405H56.7984V23.0058L64.8939 33.5405H71.6889L61.7077 20.7413L70.6485 8.23745Z" fill="white"/>
<path d="M48.3453 8.23745H42.0055L34.4952 18.7722V0.426636H28.7406V33.5405H34.4952V23.0058L42.5907 33.5405H49.3857L39.4045 20.7413L48.3453 8.23745Z" fill="white"/>
<path d="M81.9302 7.77798C74.745 7.77798 68.8929 13.6197 68.8929 20.9054C68.8929 28.1583 74.745 34 81.9302 34C89.1478 34 95 28.1583 95 20.9054C95 13.6197 89.1478 7.77798 81.9302 7.77798ZM81.8977 28.5193C77.8987 28.5193 74.615 24.9421 74.615 20.9054C74.615 16.8359 77.8987 13.2587 81.8977 13.2587C85.9292 13.2587 89.2129 16.8359 89.2129 20.9054C89.2129 24.9421 85.9292 28.5193 81.8977 28.5193Z" fill="white"/>
</svg>
