<svg width="141" height="19" viewBox="0 0 141 19" fill="none" xmlns="http://www.w3.org/2000/svg">
<path d="M33.8454 1.47636C32.6548 0.49411 31.0152 0.00215826 28.9267 0.00050464H21.9815C21.8978 -0.00295405 21.8142 0.0113968 21.7364 0.0426095C21.6586 0.0738221 21.5883 0.121187 21.5301 0.181576C21.474 0.246808 21.4314 0.32244 21.4046 0.404154C21.3778 0.485868 21.3673 0.572064 21.3738 0.657818V17.5098C21.372 17.5916 21.3871 17.6728 21.4183 17.7484C21.4494 17.8239 21.496 17.8922 21.5549 17.9489C21.6118 18.0075 21.6801 18.0537 21.7557 18.0849C21.8312 18.116 21.9123 18.1314 21.9939 18.1299H24.4744C24.6455 18.1372 24.8127 18.0776 24.9407 17.9638C25.0018 17.9056 25.0496 17.8349 25.0808 17.7566C25.1121 17.6783 25.1261 17.5941 25.1217 17.5098V11.4526H28.9267C31.0152 11.4526 32.6548 10.9739 33.8454 10.0165C35.036 9.05903 35.6313 7.64766 35.6313 5.78238C35.6313 3.90387 35.036 2.46853 33.8454 1.47636ZM31.0897 7.84114C30.5613 8.31738 29.7998 8.55302 28.7977 8.55302H25.0771V2.91005H28.7977C29.8346 2.91005 30.6068 3.15809 31.1145 3.65417C31.6105 4.15026 31.8784 4.85222 31.8784 5.75014C31.8784 6.64805 31.6155 7.36737 31.0897 7.84114ZM50.8215 10.7011C51.8473 10.3726 52.7409 9.72409 53.3713 8.85067C53.9919 7.91744 54.3042 6.8131 54.2643 5.69309C54.2643 3.87411 53.6649 2.47597 52.466 1.49868C51.2671 0.521395 49.606 0.029443 47.4828 0.0228285H40.7856C40.7015 0.0190138 40.6174 0.033191 40.5392 0.0644144C40.4609 0.0956377 40.3902 0.14319 40.3317 0.2039C40.2175 0.331766 40.157 0.498843 40.1631 0.67022V17.5098C40.1627 17.5916 40.1786 17.6726 40.2098 17.7481C40.241 17.8237 40.2869 17.8923 40.3448 17.9499C40.4027 18.0076 40.4715 18.0532 40.5472 18.0841C40.6229 18.115 40.7039 18.1306 40.7856 18.1299H43.1669C43.2528 18.1331 43.3385 18.1186 43.4187 18.0875C43.4989 18.0563 43.5718 18.0092 43.6332 17.9489C43.6918 17.892 43.738 17.8236 43.7692 17.7481C43.8003 17.6726 43.8157 17.5915 43.8142 17.5098V11.3088H47.3613L50.6726 17.4453C50.7819 17.6328 50.9219 17.8005 51.0869 17.9414C51.2734 18.0797 51.5025 18.1481 51.7343 18.1349H54.1155C54.2564 18.1347 54.3917 18.0796 54.4925 17.9811C54.5469 17.9321 54.5901 17.8719 54.6192 17.8047C54.6483 17.7376 54.6626 17.6649 54.6612 17.5917C54.6571 17.4925 54.6299 17.3957 54.5818 17.3089L50.8215 10.7011ZM49.735 7.66006C49.2158 8.11646 48.4386 8.34549 47.4034 8.34714H43.8068V2.91005H47.4034C48.4402 2.91005 49.2174 3.14734 49.735 3.62193C50.251 4.09817 50.5114 4.77285 50.5114 5.6534C50.5114 6.53395 50.251 7.20367 49.735 7.66006ZM71.4785 15.1187H62.797V10.4431H70.717C70.8883 10.4491 71.0554 10.3887 71.1833 10.2744C71.2444 10.2163 71.2922 10.1456 71.3234 10.0673C71.3547 9.98893 71.3687 9.90476 71.3644 9.82052V8.19088C71.3675 8.10492 71.353 8.01923 71.3219 7.93905C71.2907 7.85887 71.2436 7.78589 71.1833 7.72456C71.1216 7.66472 71.0486 7.61787 70.9685 7.58677C70.8884 7.55567 70.8028 7.54095 70.717 7.54348H62.797V3.01422H71.2875C71.4582 3.02065 71.6246 2.96012 71.7513 2.84556C71.8124 2.78741 71.8602 2.71674 71.8915 2.6384C71.9227 2.56005 71.9367 2.47588 71.9324 2.39164V0.655338C71.9362 0.569508 71.9222 0.483813 71.8912 0.40369C71.8602 0.323566 71.8128 0.250761 71.7522 0.189892C71.6916 0.129023 71.619 0.0814192 71.539 0.0500982C71.4589 0.0187773 71.3733 0.00442301 71.2875 0.00794609H59.8775C59.7937 0.00448741 59.7102 0.0188383 59.6324 0.0500509C59.5545 0.0812636 59.4842 0.128628 59.4261 0.189017C59.3109 0.316336 59.2503 0.483797 59.2574 0.655338V17.5098C59.2555 17.5916 59.2707 17.6728 59.3018 17.7484C59.333 17.8239 59.3795 17.8922 59.4385 17.9489C59.4954 18.0075 59.5637 18.0537 59.6392 18.0849C59.7147 18.116 59.7958 18.1314 59.8775 18.1299H71.4785C71.6496 18.1372 71.8168 18.0776 71.9448 17.9638C72.0059 17.9056 72.0537 17.8349 72.0849 17.7566C72.1162 17.6783 72.1301 17.5941 72.1258 17.5098V15.7487C72.1299 15.6649 72.1159 15.5811 72.0846 15.5032C72.0534 15.4253 72.0057 15.3551 71.9448 15.2973C71.8187 15.179 71.6513 15.1148 71.4785 15.1187ZM93.2467 0.00050464H91.1755C91.0125 0.00142436 90.853 0.0485076 90.7156 0.136303C90.5782 0.224098 90.4685 0.349015 90.3992 0.49659L85.4085 9.77091L80.408 0.504032C80.3386 0.356457 80.2289 0.23154 80.0915 0.143744C79.9541 0.055949 79.7947 0.00886581 79.6316 0.00794609H77.5357C77.4515 0.00413136 77.3674 0.0183086 77.2892 0.0495319C77.2109 0.0807553 77.1402 0.128307 77.0817 0.189017C76.9681 0.31713 76.9086 0.484259 76.9156 0.655338V17.5098C76.9152 17.5914 76.931 17.6722 76.9621 17.7475C76.9931 17.8229 77.0388 17.8914 77.0964 17.9491C77.1541 18.0067 77.2226 18.0524 77.298 18.0834C77.3733 18.1145 77.4541 18.1303 77.5357 18.1299H79.768C79.8519 18.1341 79.9356 18.12 80.0136 18.0887C80.0915 18.0575 80.1617 18.0098 80.2195 17.9489C80.3314 17.8305 80.392 17.6727 80.3882 17.5098V6.38016L83.9848 13.2137C84.0645 13.3823 84.19 13.525 84.3471 13.6254C84.5041 13.7259 84.6863 13.7801 84.8728 13.7818H85.9592C86.142 13.7837 86.3212 13.7306 86.4734 13.6293C86.6256 13.5279 86.7437 13.3832 86.8125 13.2137L90.4041 6.38016V17.5098C90.4038 17.5914 90.4196 17.6722 90.4507 17.7475C90.4817 17.8229 90.5274 17.8914 90.585 17.9491C90.6427 18.0067 90.7112 18.0524 90.7865 18.0834C90.8619 18.1145 90.9427 18.1303 91.0242 18.1299H93.2566C93.4277 18.1369 93.5948 18.0774 93.7229 17.9638C93.7836 17.9053 93.8312 17.8346 93.8624 17.7563C93.8936 17.6781 93.9078 17.594 93.904 17.5098V0.657818C93.9079 0.57177 93.8938 0.485858 93.8626 0.405558C93.8315 0.325257 93.7839 0.25233 93.723 0.191423C93.6621 0.130516 93.5892 0.0829664 93.5089 0.0518038C93.4286 0.0206411 93.3427 0.00654932 93.2566 0.0104266L93.2467 0.00050464ZM102.588 0.00050464H100.108C99.9448 -0.00283776 99.7872 0.0577104 99.6685 0.169174C99.6074 0.227322 99.5596 0.297988 99.5283 0.376334C99.4971 0.454679 99.4831 0.538853 99.4874 0.623092V17.49C99.4871 17.5715 99.5029 17.6523 99.534 17.7277C99.565 17.8031 99.6107 17.8716 99.6683 17.9292C99.726 17.9869 99.7945 18.0325 99.8699 18.0636C99.9452 18.0946 100.026 18.1104 100.108 18.1101H102.588C102.672 18.1139 102.756 18.0997 102.834 18.0685C102.913 18.0373 102.983 17.9897 103.042 17.929C103.153 17.8103 103.213 17.6525 103.208 17.49V0.623092C103.213 0.540115 103.2 0.457085 103.172 0.37905C103.143 0.301016 103.099 0.229609 103.042 0.169174C102.919 0.0588553 102.758 0.00175823 102.593 0.0104266L102.588 0.00050464ZM121.062 15.1187H112.366V10.4431H120.286C120.457 10.4491 120.624 10.3887 120.752 10.2744C120.813 10.216 120.86 10.1453 120.892 10.067C120.923 9.98873 120.937 9.9047 120.933 9.82052V8.19088C120.937 8.10483 120.923 8.01892 120.892 7.93862C120.861 7.85832 120.813 7.78539 120.752 7.72448C120.691 7.66357 120.618 7.61602 120.538 7.58486C120.458 7.5537 120.372 7.53961 120.286 7.54348H112.366V3.01422H120.856C121.027 3.02065 121.193 2.96012 121.32 2.84556C121.381 2.78741 121.429 2.71674 121.46 2.6384C121.492 2.56005 121.506 2.47588 121.501 2.39164V0.655338C121.505 0.569508 121.491 0.483813 121.46 0.40369C121.429 0.323566 121.382 0.250761 121.321 0.189892C121.26 0.129023 121.188 0.0814192 121.108 0.0500982C121.028 0.0187773 120.942 0.00442301 120.856 0.00794609H109.429C109.345 0.00448741 109.262 0.0188383 109.184 0.0500509C109.106 0.0812636 109.036 0.128628 108.978 0.189017C108.862 0.316336 108.802 0.483797 108.809 0.655338V17.5098C108.809 17.5914 108.824 17.6722 108.855 17.7475C108.886 17.8229 108.932 17.8914 108.99 17.9491C109.047 18.0067 109.116 18.0524 109.191 18.0834C109.267 18.1145 109.347 18.1303 109.429 18.1299H121.062C121.233 18.1372 121.401 18.0776 121.529 17.9638C121.589 17.9053 121.637 17.8346 121.668 17.7563C121.699 17.6781 121.713 17.594 121.71 17.5098V15.7487C121.713 15.665 121.699 15.5814 121.667 15.5036C121.636 15.4258 121.589 15.3555 121.529 15.2973C121.402 15.179 121.235 15.1148 121.062 15.1187ZM140.906 17.294L137.16 10.7011C138.179 10.3688 139.065 9.72069 139.69 8.85067C140.318 7.91977 140.637 6.81525 140.603 5.69309C140.603 3.87411 140.004 2.47597 138.805 1.49868C137.606 0.521395 135.945 0.029443 133.822 0.0228285H127.124C127.04 0.0190138 126.956 0.033191 126.878 0.0644144C126.8 0.0956377 126.729 0.14319 126.67 0.2039C126.556 0.331766 126.496 0.498843 126.502 0.67022V17.5098C126.501 17.5916 126.517 17.6726 126.549 17.7481C126.58 17.8237 126.626 17.8923 126.684 17.9499C126.741 18.0076 126.81 18.0532 126.886 18.0841C126.962 18.115 127.043 18.1306 127.124 18.1299H129.506C129.592 18.1334 129.677 18.119 129.758 18.0879C129.838 18.0567 129.911 18.0094 129.972 17.9489C130.03 17.892 130.077 17.8236 130.108 17.7481C130.139 17.6726 130.154 17.5915 130.153 17.5098V11.3088H133.7L137.014 17.4453C137.121 17.6332 137.261 17.801 137.426 17.9414C137.612 18.0797 137.841 18.1481 138.073 18.1349H140.457C140.597 18.1346 140.731 18.0794 140.831 17.9811C140.886 17.9321 140.929 17.8719 140.958 17.8047C140.987 17.7376 141.001 17.6649 141 17.5917C140.994 17.4902 140.965 17.3916 140.913 17.304L140.906 17.294ZM136.074 7.66006C135.556 8.11646 134.779 8.34549 133.742 8.34714H130.146V2.91005H133.737C134.774 2.91005 135.551 3.14734 136.069 3.62193C136.585 4.09817 136.845 4.77285 136.845 5.6534C136.845 6.53395 136.59 7.20367 136.074 7.66006Z" fill="#D49143"/>
<path d="M15.8926 8.83631C15.7906 8.61301 15.6157 8.43107 15.3965 8.32038L1.30771 0.184581C0.593345 -0.22717 0.00796509 0.110168 0.00796509 0.928709V17.2053C0.00796509 18.0313 0.593345 18.3686 1.30771 17.9494L15.3965 9.8136C15.6158 9.70197 15.7907 9.51919 15.8926 9.29519C15.9222 9.22102 15.9374 9.14188 15.9373 9.06203C15.936 8.98473 15.9209 8.90828 15.8926 8.83631Z" fill="#D49143"/>
<path d="M15.8926 8.83631C15.7906 8.61301 15.6157 8.43107 15.3965 8.32038L1.30771 0.184581C0.593345 -0.22717 0.00796509 0.110168 0.00796509 0.928709V9.06947H15.9348C15.9352 8.98982 15.9209 8.91078 15.8926 8.83631Z" fill="#D49143"/>
<path d="M0.00992099 4.25248L15.8847 8.83631C15.7826 8.61301 15.6077 8.43107 15.3886 8.32038L1.29974 0.184581C0.58538 -0.22717 0 0.110168 0 0.928709L0.00992099 4.25248Z" fill="#D49143"/>
</svg>
