<svg width="199" height="108" viewBox="0 0 199 108" fill="none" xmlns="http://www.w3.org/2000/svg">
<g clip-path="url(#clip0_80_9)">
<path d="M102.19 76.88C96.34 105.25 83.63 110.14 47.43 106.09C4.99999 101.35 -3.08001 91.09 1.72999 48.09C6.53999 5.09 16.5 -3 58.92 1.69C88 5 100.9 10.77 104.63 28" stroke="black" stroke-width="2" stroke-miterlimit="10"/>
<path d="M188.17 27.39C185.856 27.4119 183.595 28.0786 181.639 29.3152C179.684 30.5517 178.112 32.3092 177.1 34.39L163.85 54.7L165 38.81C165.181 37.5209 165.105 36.2088 164.778 34.9489C164.451 33.689 163.878 32.506 163.094 31.4676C162.309 30.4291 161.327 29.5557 160.204 28.8972C159.081 28.2387 157.839 27.8081 156.55 27.63C156.066 27.5615 155.578 27.5281 155.09 27.53C153.798 27.4873 152.51 27.6997 151.299 28.1551C150.089 28.6106 148.98 29.3001 148.037 30.1842C147.093 31.0684 146.333 32.1298 145.8 33.3079C145.267 34.486 144.971 35.7576 144.93 37.05L142.93 66.05C142.47 73.36 146.2 77.41 152.25 77.37C158.3 77.33 161.77 73.15 164.44 69.07L177.24 49.28L176.19 66C175.73 72.82 179.25 77.35 185.85 77.32C187.099 77.4515 188.362 77.3354 189.566 76.9782C190.77 76.621 191.892 76.0297 192.868 75.2383C193.843 74.4469 194.653 73.4708 195.25 72.366C195.848 71.2613 196.221 70.0494 196.35 68.8C196.35 68.57 196.35 68.34 196.4 68.11L198.4 38.72C198.51 33 195.73 27.36 188.17 27.39ZM137.63 63.49C137.548 60.4211 136.3 57.4987 134.139 55.3176C131.979 53.1366 129.068 51.8608 126 51.75C132.12 50.41 137.5 46.3 137.46 39.62C137.46 32.21 131.77 28.02 121.4 28.13H100.3C90.6 28.13 87.01 32.13 86.24 43L85.18 61.24C84.41 73.44 87.85 77.24 99.7 77.24H119.84C131.41 77 137.66 72.21 137.63 63.49ZM117.73 62.26C117.73 66.48 114.57 68.48 109.19 68.48H103.53C103.53 68.48 104.41 62.54 104.94 56.64H110.14C114.6 56.6 117.73 58.43 117.73 62.26ZM117.73 42.4C117.73 45.91 114.85 48.2 109.73 48.23H105.44C105.64 44.4626 105.64 40.6873 105.44 36.92H110.15C114.83 36.92 117.57 38.92 117.61 42.43L117.73 42.4Z" stroke="black" stroke-width="2" stroke-miterlimit="10"/>
<path d="M70.42 28C68.1074 28.0265 65.8476 28.695 63.8929 29.9311C61.9382 31.1672 60.3654 32.9221 59.35 35L46.13 55.41L47.29 39.62C47.6399 36.9964 46.9353 34.3411 45.3307 32.236C43.7262 30.131 41.3525 28.7479 38.73 28.39C38.2691 28.3298 37.8048 28.2998 37.34 28.3C36.0536 28.2436 34.7686 28.4413 33.5586 28.8818C32.3487 29.3223 31.2373 29.9969 30.2882 30.8671C29.3391 31.7373 28.5707 32.786 28.0271 33.9533C27.4835 35.1205 27.1753 36.3835 27.12 37.67V37.76L25.19 66.86C24.73 73.86 28.46 78.22 34.33 78.18C40.2 78.14 43.92 73.51 46.53 69.68L59.24 49.89L58.19 66.55C57.66 73.3 61.28 77.9 67.82 77.87C70.3724 78.1035 72.9132 77.3141 74.8839 75.6753C76.8547 74.0364 78.0941 71.6822 78.33 69.13C78.3396 68.9735 78.3396 68.8165 78.33 68.66L80.33 39.31C80.79 33.51 78.15 27.81 70.42 28Z" stroke="black" stroke-width="2" stroke-miterlimit="10"/>
</g>
<defs>
<clipPath id="clip0_80_9">
<rect width="198.94" height="107.83" fill="white"/>
</clipPath>
</defs>
</svg>
