<svg width="502" height="66" viewBox="0 0 502 66" fill="none" xmlns="http://www.w3.org/2000/svg">
<path fill-rule="evenodd" clip-rule="evenodd" d="M180 33C180 15 189 0.54 205.26 0.54C221.52 0.54 230.43 14.91 230.43 33C230.43 51.09 221.43 65.47 205.21 65.47C188.99 65.47 180 51 180 33ZM205.26 56.46C211.58 56.46 214.26 45.65 214.26 33.04C214.26 20.43 211.54 9.58 205.26 9.58C198.98 9.58 196.26 20.39 196.26 33C196.26 45.61 199 56.42 205.21 56.42L205.26 56.46ZM12.26 1.46V18.55H13.14L24.84 1.42H40.94L19.4 21.24L20.32 22.15L60 1.38V15.83L24.8 28.44V29.29L60 26.16V39.69L24.81 36.69V37.61L60 50.17V64.58L20.32 43.77L19.4 44.65L40.94 64.51H24.84L13.11 47.34H12.23V64.51H0.5V1.38H12.23L12.26 1.46ZM70.86 1.46H86.16L85.28 39.33H86.16L104.16 1.46H117.69V64.54H102.41L103.41 26.68H102.53L84.53 64.54H70.83L70.86 1.46ZM143.91 1.46H128.55V64.54H143.88V36.64H156.49V64.64H171.82V1.42H156.49V25.61H143.88L143.91 1.46ZM281.85 1.46H238.59V64.54H253.88V12.23H266.53V64.54H281.82L281.85 1.46ZM290 33C290 15 299 0.54 315.26 0.54C331.52 0.54 340.43 14.91 340.43 33C340.43 51.09 331.38 65.47 315.21 65.47C299.04 65.47 290 51 290 33ZM315.26 56.46C321.58 56.46 324.26 45.65 324.26 33.04C324.26 20.43 321.54 9.58 315.26 9.58C308.98 9.58 306.26 20.39 306.26 33C306.26 45.61 308.88 56.42 315.21 56.42L315.26 56.46ZM363.93 1.46H348.55V64.54H362.08L380.13 26.68H381L380.12 64.54H395.42V1.42H381.9L363.9 39.29H363L363.93 1.46ZM436.1 42.93L450.51 44.73C447.79 57.34 441.51 65.47 428.05 65.47C411.79 65.43 403.59 51 403.59 33C403.59 15 411.79 0.5 428 0.5C441.16 0.5 447.74 8.59 450.46 20.32L436.05 24C435.13 17.68 432.38 9.59 428 9.59C422.63 9.59 419.8 20.4 419.8 33.01C419.8 45.62 422.63 56.47 428 56.47C432.45 56.42 435.13 49.21 436.05 42.89L436.1 42.93ZM472.12 1.42H457.67V64.54H472.12V36.64H473L483.81 64.64H500.5L484.73 32.15L500.06 1.42H484.73L473 29.29H472.12V1.42Z" stroke="black" stroke-width="2" stroke-miterlimit="10"/>
</svg>
