<svg width="213" height="77" viewBox="0 0 213 77" fill="none" xmlns="http://www.w3.org/2000/svg">
<path d="M29.59 17.86C23.8004 17.8422 18.1356 19.5424 13.3127 22.7453C8.48973 25.9483 4.72539 30.51 2.49609 35.8533C0.266785 41.1965 -0.327264 47.081 0.789126 52.7619C1.90552 58.4429 4.68216 63.665 8.76763 67.7673C12.8531 71.8696 18.0638 74.6676 23.7401 75.8073C29.4164 76.947 35.3033 76.3772 40.6556 74.1698C46.008 71.9625 50.5852 68.2169 53.8079 63.4071C57.0306 58.5974 58.754 52.9396 58.76 47.15C58.7771 43.3089 58.0352 39.5022 56.5768 35.9487C55.1184 32.3952 52.9723 29.1648 50.2618 26.4431C47.5513 23.7215 44.3297 21.5621 40.7822 20.0892C37.2347 18.6162 33.4311 17.8586 29.59 17.86ZM29.59 64.14C20.67 64.14 13.34 56.14 13.34 47.14C13.34 38.14 20.67 30.08 29.59 30.08C38.51 30.08 45.92 38.08 45.92 47.14C45.92 56.2 38.59 64.14 29.59 64.14Z" stroke="black" stroke-width="2" stroke-miterlimit="10"/>
<path d="M12.91 13.46C14.6339 13.46 16.2872 12.7752 17.5062 11.5562C18.7252 10.3372 19.41 8.6839 19.41 6.95999C19.41 5.23608 18.7252 3.58278 17.5062 2.3638C16.2872 1.14481 14.6339 0.459991 12.91 0.459991C11.1861 0.459991 9.5328 1.14481 8.31381 2.3638C7.09482 3.58278 6.41 5.23608 6.41 6.95999C6.41 8.6839 7.09482 10.3372 8.31381 11.5562C9.5328 12.7752 11.1861 13.46 12.91 13.46Z" stroke="black" stroke-width="2" stroke-miterlimit="10"/>
<path d="M46.28 13.46C47.5607 13.4639 48.8139 13.0882 49.8813 12.3804C50.9487 11.6725 51.7824 10.6642 52.277 9.48282C52.7717 8.30144 52.9052 6.99997 52.6606 5.74277C52.4161 4.48556 51.8045 3.32902 50.903 2.41921C50.0016 1.5094 48.8508 0.887116 47.5959 0.630959C46.341 0.374803 45.0383 0.49626 43.8524 0.97999C42.6665 1.46372 41.6506 2.28803 40.9329 3.34881C40.2152 4.40959 39.8279 5.65926 39.82 6.94C39.816 7.79228 39.98 8.637 40.3025 9.42591C40.625 10.2148 41.0998 10.9325 41.6996 11.5379C42.2995 12.1434 43.0127 12.6247 43.7986 12.9545C44.5845 13.2843 45.4277 13.4561 46.28 13.46Z" stroke="black" stroke-width="2" stroke-miterlimit="10"/>
<path d="M29.59 13.46C30.8712 13.4659 32.1253 13.0919 33.194 12.3852C34.2627 11.6786 35.0979 10.671 35.5941 9.48978C36.0903 8.30858 36.2253 7.0068 35.9818 5.74895C35.7384 4.49109 35.1276 3.33362 34.2266 2.42281C33.3255 1.51199 32.1747 0.888718 30.9196 0.631746C29.6644 0.374773 28.3613 0.495638 27.1748 0.979066C25.9883 1.46249 24.9718 2.28679 24.2536 3.34778C23.5354 4.40877 23.1479 5.65883 23.14 6.93999C23.132 8.65953 23.8068 10.312 25.0161 11.5344C26.2254 12.7569 27.8705 13.4494 29.59 13.46Z" stroke="black" stroke-width="2" stroke-miterlimit="10"/>
<path d="M158.16 18.88H144L127.25 42.39V1.44998H114.41V75.35H127.25V51.84L145.32 75.35H160.48L138.21 46.79L158.16 18.88Z" stroke="black" stroke-width="2" stroke-miterlimit="10"/>
<path d="M108.39 18.88H94.24L77.48 42.39V1.44998H64.64V75.35H77.48V51.84L95.54 75.35H110.71L88.43 46.79L108.39 18.88Z" stroke="black" stroke-width="2" stroke-miterlimit="10"/>
<path d="M183.33 17.86C177.54 17.8422 171.876 19.5424 167.053 22.7453C162.23 25.9483 158.465 30.51 156.236 35.8533C154.007 41.1965 153.413 47.081 154.529 52.7619C155.646 58.4429 158.422 63.665 162.508 67.7673C166.593 71.8696 171.804 74.6676 177.48 75.8073C183.156 76.947 189.043 76.3772 194.396 74.1698C199.748 71.9625 204.325 68.2169 207.548 63.4071C210.771 58.5974 212.494 52.9396 212.5 47.15C212.517 43.3089 211.775 39.5022 210.317 35.9487C208.858 32.3952 206.712 29.1648 204.002 26.4431C201.291 23.7215 198.07 21.5621 194.522 20.0892C190.975 18.6162 187.171 17.8586 183.33 17.86ZM183.26 64.14C174.34 64.14 167.01 56.14 167.01 47.14C167.01 38.14 174.34 30.08 183.26 30.08C192.18 30.08 199.59 38.08 199.59 47.14C199.59 56.2 192.26 64.14 183.26 64.14Z" stroke="black" stroke-width="2" stroke-miterlimit="10"/>
</svg>
