<svg width="490" height="64" viewBox="0 0 490 64" fill="none" xmlns="http://www.w3.org/2000/svg">
<path d="M117.85 5.62C113.723 2.20666 108.037 0.499998 100.79 0.499998H76.71C76.419 0.491013 76.1293 0.542347 75.8591 0.650769C75.5889 0.759191 75.3441 0.922355 75.14 1.13C74.9491 1.35709 74.8032 1.6184 74.71 1.9C74.614 2.18282 74.5765 2.48224 74.6 2.78V61.23C74.5897 61.511 74.6409 61.7909 74.75 62.05C74.8602 62.3138 75.0236 62.5521 75.23 62.75C75.4255 62.9521 75.6603 63.1121 75.92 63.22C76.1833 63.3277 76.4655 63.3821 76.75 63.38H85.35C85.9543 63.4072 86.5456 63.1993 87 62.8C87.2122 62.5992 87.3762 62.3531 87.48 62.08C87.5895 61.8104 87.6406 61.5207 87.63 61.23V40.23H100.82C108.073 40.23 113.76 38.5633 117.88 35.23C122 31.8967 124.04 27.0033 124 20.55C124 14.0367 121.95 9.06 117.85 5.62ZM108.29 27.69C106.46 29.35 103.82 30.16 100.35 30.16H87.44V10.59H100.35C103.943 10.59 106.61 11.45 108.35 13.17C109.258 14.1415 109.96 15.2859 110.416 16.5351C110.871 17.7842 111.07 19.1123 111 20.44C111 23.56 110.12 26.05 108.29 27.69ZM176.73 37.61C180.286 36.4669 183.383 34.2175 185.57 31.19C187.73 27.9387 188.815 24.0909 188.67 20.19C188.67 13.89 186.59 9.04333 182.43 5.65C178.27 2.25666 172.51 0.566665 165.15 0.579998H141.92C141.63 0.570975 141.342 0.618529 141.07 0.719998C140.797 0.828459 140.551 0.995758 140.35 1.21C139.951 1.64945 139.74 2.22701 139.76 2.82V61.23C139.763 61.5108 139.817 61.7887 139.92 62.05C140.142 62.578 140.562 62.998 141.09 63.22C141.355 63.322 141.636 63.3762 141.92 63.38H150.18C150.477 63.3904 150.773 63.3394 151.05 63.23C151.329 63.1206 151.584 62.9575 151.8 62.75C152 62.549 152.16 62.3113 152.27 62.05C152.379 61.7909 152.43 61.511 152.42 61.23V39.72H164.73L176.21 61C176.588 61.6513 177.075 62.233 177.65 62.72C178.294 63.2011 179.088 63.4385 179.89 63.39H188.15C188.639 63.3904 189.109 63.2003 189.46 62.86C189.649 62.6907 189.799 62.4827 189.9 62.25C190.001 62.0168 190.049 61.764 190.04 61.51C190.029 61.1602 189.937 60.8178 189.77 60.51L176.73 37.61ZM173 27.07C171.2 28.65 168.503 29.4433 164.91 29.45H152.4V10.59H164.87C168.47 10.59 171.16 11.42 172.96 13.06C173.88 13.9687 174.596 15.063 175.06 16.27C175.523 17.4771 175.725 18.7691 175.65 20.06C175.65 23.1467 174.767 25.4833 173 27.07ZM248.41 52.93H218.26V36.72H245.72C246.316 36.7419 246.897 36.5302 247.34 36.13C247.554 35.9289 247.722 35.6831 247.83 35.41C247.941 35.141 247.989 34.8503 247.97 34.56V28.91C247.98 28.6095 247.929 28.3101 247.82 28.03C247.714 27.7525 247.55 27.5005 247.34 27.2903C247.13 27.0801 246.878 26.9165 246.6 26.81C246.32 26.7007 246.02 26.6496 245.72 26.66H218.26V11H247.7C247.993 11.0152 248.287 10.9717 248.563 10.8722C248.84 10.7726 249.094 10.6189 249.31 10.42C249.525 10.2191 249.692 9.9734 249.801 9.70031C249.91 9.42722 249.958 9.13347 249.94 8.84V2.84C249.948 2.5438 249.901 2.2487 249.8 1.97C249.693 1.69281 249.529 1.44084 249.32 1.23C249.106 1.0219 248.855 0.855697 248.58 0.739998C248.298 0.638579 248 0.591087 247.7 0.599998H208.13C207.84 0.590975 207.552 0.638529 207.28 0.739998C207.011 0.851391 206.769 1.01839 206.57 1.23C206.195 1.65472 205.992 2.20369 206 2.77V61.23C205.998 61.5113 206.052 61.7901 206.16 62.05C206.267 62.3132 206.427 62.5516 206.63 62.75C206.829 62.951 207.065 63.1103 207.326 63.2185C207.587 63.3267 207.867 63.3816 208.15 63.38H248.39C248.981 63.3989 249.557 63.1914 250 62.8C250.212 62.5971 250.379 62.3517 250.49 62.08C250.601 61.811 250.649 61.5203 250.63 61.23V55.12C250.644 54.83 250.596 54.5403 250.49 54.27C250.379 53.9983 250.212 53.7529 250 53.55C249.783 53.3443 249.527 53.1836 249.247 53.0772C248.967 52.9708 248.669 52.9208 248.37 52.93H248.41ZM323.86 0.499998H316.68C316.113 0.502306 315.558 0.665269 315.08 0.969998C314.613 1.28093 314.24 1.71304 314 2.22L296.7 34.39L279.33 2.25C279.091 1.73918 278.714 1.30596 278.24 0.999998C277.763 0.691662 277.208 0.528381 276.64 0.529998H269.37C269.08 0.511327 268.789 0.559212 268.52 0.669998C268.247 0.778459 268.001 0.945758 267.8 1.16C267.404 1.60045 267.196 2.17822 267.22 2.77V61.23C267.223 61.5108 267.277 61.7887 267.38 62.05C267.49 62.3113 267.65 62.549 267.85 62.75C268.048 62.951 268.287 63.1078 268.55 63.21C268.809 63.3209 269.088 63.3787 269.37 63.38H277.11C277.404 63.3914 277.697 63.3403 277.97 63.23C278.239 63.1232 278.481 62.9594 278.68 62.75C279.069 62.3404 279.281 61.7945 279.27 61.23V22.63L291.74 46.33C292.016 46.9137 292.453 47.4063 293 47.75C293.543 48.1007 294.174 48.2913 294.82 48.3H298.59C299.222 48.3014 299.841 48.1171 300.37 47.77C300.898 47.418 301.309 46.9167 301.55 46.33L314 22.63V61.23C314.003 61.5108 314.057 61.7887 314.16 62.05C314.27 62.3113 314.43 62.549 314.63 62.75C314.828 62.951 315.067 63.1078 315.33 63.21C315.589 63.3209 315.868 63.3787 316.15 63.38H323.89C324.484 63.4004 325.064 63.1929 325.51 62.8C325.722 62.5971 325.889 62.3517 326 62.08C326.101 61.8085 326.149 61.5197 326.14 61.23V2.78C326.15 2.48369 326.102 2.18826 326 1.91C325.887 1.63054 325.721 1.37579 325.51 1.16C325.299 0.950576 325.047 0.787137 324.77 0.679998C324.491 0.567749 324.19 0.519895 323.89 0.539998L323.86 0.499998ZM356.26 0.499998H347.66C347.092 0.487903 346.543 0.699862 346.13 1.09C345.916 1.29109 345.748 1.53692 345.64 1.81C345.539 2.08154 345.491 2.37026 345.5 2.66V61.16C345.503 61.4408 345.557 61.7187 345.66 61.98C345.882 62.508 346.302 62.928 346.83 63.15C347.094 63.2539 347.376 63.3082 347.66 63.31H356.26C356.551 63.319 356.841 63.2676 357.111 63.1592C357.381 63.0508 357.626 62.8876 357.83 62.68C358.215 62.2689 358.423 61.7231 358.41 61.16V2.66C358.421 2.37096 358.377 2.0824 358.28 1.81C358.181 1.54161 358.028 1.2965 357.83 1.09C357.62 0.898928 357.373 0.751836 357.106 0.657381C356.838 0.562926 356.554 0.523015 356.27 0.539998L356.26 0.499998ZM420.33 52.93H390.17V36.72H417.63C418.226 36.7419 418.807 36.5302 419.25 36.13C419.463 35.9302 419.63 35.6861 419.739 35.4149C419.848 35.1436 419.896 34.8518 419.88 34.56V28.91C419.889 28.6105 419.841 28.312 419.74 28.03C419.628 27.753 419.461 27.5014 419.25 27.2901C419.039 27.0788 418.787 26.9122 418.51 26.8C418.228 26.6986 417.93 26.6511 417.63 26.66H390.17V11H419.61C419.903 11.0141 420.197 10.9701 420.473 10.8706C420.749 10.771 421.003 10.6179 421.22 10.42C421.432 10.2171 421.599 9.97174 421.71 9.7C421.822 9.42775 421.87 9.13359 421.85 8.84V2.84C421.858 2.5438 421.811 2.2487 421.71 1.97C421.604 1.68975 421.437 1.43685 421.22 1.23C421.012 1.01984 420.763 0.853269 420.49 0.739998C420.208 0.638579 419.91 0.591087 419.61 0.599998H380C379.71 0.590975 379.422 0.638529 379.15 0.739998C378.881 0.851391 378.639 1.01839 378.44 1.23C378.241 1.44646 378.086 1.70006 377.985 1.97631C377.884 2.25256 377.838 2.54604 377.85 2.84V61.23C377.848 61.5113 377.902 61.7901 378.01 62.05C378.12 62.3113 378.28 62.549 378.48 62.75C378.678 62.951 378.917 63.1078 379.18 63.21C379.439 63.3209 379.718 63.3787 380 63.38H420.35C420.954 63.4051 421.545 63.1975 422 62.8C422.212 62.5993 422.377 62.3548 422.484 62.0836C422.591 61.8124 422.637 61.5211 422.62 61.23V55.12C422.631 54.8292 422.579 54.5396 422.47 54.27C422.367 53.9988 422.207 53.7531 422 53.55C421.547 53.1303 420.947 52.9073 420.33 52.93ZM489.15 60.48L476.15 37.61C479.686 36.4601 482.762 34.2108 484.93 31.19C487.118 27.9484 488.227 24.0989 488.1 20.19C488.1 13.89 486.02 9.04333 481.86 5.65C477.7 2.25666 471.94 0.566665 464.58 0.579998H441.35C441.06 0.570975 440.772 0.618529 440.5 0.719998C440.227 0.833269 439.978 0.999839 439.77 1.21C439.379 1.65315 439.171 2.22903 439.19 2.82V61.23C439.188 61.5113 439.242 61.7901 439.35 62.05C439.572 62.578 439.992 62.998 440.52 63.22C440.785 63.322 441.066 63.3762 441.35 63.38H449.61C449.907 63.3904 450.203 63.3394 450.48 63.23C450.759 63.1206 451.014 62.9575 451.23 62.75C451.43 62.549 451.59 62.3113 451.7 62.05C451.809 61.7909 451.86 61.511 451.85 61.23V39.72H464.16L475.65 61C476.022 61.6528 476.506 62.2351 477.08 62.72C477.724 63.2011 478.518 63.4385 479.32 63.39H487.59C488.076 63.3889 488.542 63.1988 488.89 62.86C489.079 62.6907 489.229 62.4827 489.33 62.25C489.431 62.0168 489.479 61.764 489.47 61.51C489.45 61.1577 489.347 60.815 489.17 60.51L489.15 60.48ZM472.39 27.07C470.59 28.65 467.9 29.44 464.3 29.45H451.83V10.59H464.28C467.88 10.59 470.57 11.42 472.37 13.06C473.29 13.9687 474.006 15.063 474.47 16.27C474.933 17.4771 475.135 18.7691 475.06 20.06C475.06 23.16 474.18 25.48 472.39 27.07Z" stroke="black" stroke-width="2" stroke-miterlimit="10"/>
<path d="M55.59 31.15C55.2406 30.3726 54.6329 29.7401 53.87 29.36L5 1.14001C2.53 -0.289993 0.5 0.880007 0.5 3.72001V60.17C0.5 63.03 2.5 64.17 5.01 62.75L53.87 34.53C54.6304 34.1466 55.2372 33.5151 55.59 32.74C55.6888 32.4814 55.7396 32.2069 55.74 31.93C55.7427 31.6626 55.6916 31.3974 55.59 31.15Z" stroke="black" stroke-width="2" stroke-miterlimit="10"/>
</svg>
